Coordinates
version=1
nRows=65
nColumns=12
inDegrees=yes

Units are S.I. units (second, meters, Newtons, ...)
Angles are in degrees

endheader
time	SC_y	SC_z	SC_x	AC_y	AC_z	AC_x	GH_y	GH_z	GH_yy	EL_x	PS_y
       0.0              -16.77         -1.104          38.54          37.65         -8.559         -9.046         -97.48          44.87         -167.0          133.6          31.48
   0.04023              -16.78         -1.103          38.55          37.65         -8.557         -9.047         -97.45          44.86         -166.9          133.6          31.49
   0.08046              -16.78         -1.101          38.56          37.65         -8.554         -9.048          -97.4          44.86         -166.9          133.6          31.49
    0.1207              -16.79         -1.099          38.56          37.66         -8.552          -9.05         -97.36          44.86         -166.8          133.6           31.5
    0.1609               -16.8         -1.097          38.57          37.66         -8.549         -9.051         -97.32          44.85         -166.8          133.6          31.51
    0.2011               -16.8         -1.094          38.58          37.67         -8.547         -9.052         -97.27          44.85         -166.7          133.6          31.52
    0.2414              -16.81         -1.092          38.59          37.68         -8.544         -9.054         -97.21          44.85         -166.7          133.6          31.53
    0.2816              -16.82          -1.09          38.59          37.68          -8.54         -9.055         -97.16          44.84         -166.6          133.6          31.54
    0.3218              -16.82         -1.087           38.6          37.69         -8.537         -9.057          -97.1          44.84         -166.5          133.6          31.55
    0.3621              -16.83         -1.084          38.61           37.7         -8.533         -9.059         -97.03          44.83         -166.5          133.6          31.57
    0.4023              -16.84         -1.081          38.63          37.71          -8.53         -9.061         -96.96          44.83         -166.4          133.6          31.58
    0.4425              -16.85         -1.077          38.64          37.71         -8.525         -9.063         -96.89          44.82         -166.3          133.6          31.59
    0.4828              -16.86         -1.074          38.65          37.72         -8.521         -9.065         -96.81          44.81         -166.2          133.6          31.61
     0.523              -16.87          -1.07          38.66          37.73         -8.516         -9.068         -96.72          44.81         -166.1          133.6          31.63
    0.5632              -16.88         -1.065          38.68          37.75         -8.511          -9.07         -96.63           44.8         -166.0          133.6          31.65
    0.6034               -16.9         -1.061          38.69          37.76         -8.505         -9.073         -96.52          44.79         -165.9          133.6          31.66
    0.6437              -16.91         -1.056          38.71          37.77         -8.499         -9.076         -96.41          44.78         -165.8          133.6          31.69
    0.6839              -16.93          -1.05          38.73          37.78         -8.492          -9.08         -96.29          44.77         -165.6          133.6          31.71
    0.7241              -16.94         -1.044          38.75           37.8         -8.485         -9.084         -96.16          44.76         -165.5          133.6          31.74
    0.7644              -16.96         -1.038          38.78          37.82         -8.477         -9.088         -96.01          44.75         -165.3          133.6          31.76
    0.8046              -16.98         -1.031           38.8          37.84         -8.468         -9.092         -95.85          44.74         -165.1          133.6          31.79
    0.8448               -17.0         -1.023          38.83          37.86         -8.458         -9.097         -95.68          44.73         -164.9          133.6          31.83
     0.885              -17.03         -1.014          38.86          37.88         -8.448         -9.103         -95.49          44.71         -164.7          133.6          31.86
    0.9253              -17.05         -1.004          38.89           37.9         -8.436         -9.109         -95.27          44.69         -164.5          133.6          31.91
    0.9655              -17.08        -0.9934          38.93          37.93         -8.422         -9.115         -95.03          44.68         -164.2          133.6          31.95
     1.006              -17.12        -0.9814          38.97          37.96         -8.408         -9.123         -94.77          44.66         -163.9          133.5           32.0
     1.046              -17.16         -0.968          39.02           38.0         -8.391         -9.131         -94.47          44.63         -163.6          133.5          32.06
     1.086               -17.2        -0.9528          39.07          38.04         -8.373         -9.141         -94.14          44.61         -163.2          133.5          32.12
     1.126              -17.25        -0.9357          39.13          38.08         -8.352         -9.151         -93.76          44.58         -162.8          133.5           32.2
     1.167               -17.3        -0.9162           39.2          38.13         -8.328         -9.164         -93.33          44.54         -162.3          133.5          32.28
     1.207              -17.36        -0.8941          39.28          38.19           -8.3         -9.177         -92.84           44.5         -161.7          133.5          32.38
     1.247              -17.44        -0.8686          39.37          38.25         -8.269         -9.193         -92.28          44.46         -161.1          133.5          32.48
     1.287              -17.52        -0.8392          39.47          38.33         -8.233         -9.212         -91.63          44.41         -160.3          133.5          32.61
     1.328              -17.61         -0.805          39.59          38.42         -8.191         -9.233         -90.87          44.35         -159.5          133.5          32.75
     1.368              -17.73        -0.7651          39.73          38.52         -8.142         -9.258         -89.99          44.28         -158.5          133.5          32.92
     1.408              -17.86         -0.718          39.89          38.64         -8.084         -9.287         -88.95           44.2         -157.3          133.4          33.12
     1.448              -18.01         -0.662          40.09          38.78         -8.015         -9.322         -87.71           44.1         -155.9          133.4          33.36
     1.488               -18.2        -0.5948          40.32          38.96         -7.933         -9.364         -86.23          43.99         -154.2          133.4          33.65
     1.529              -18.43        -0.5136          40.61          39.17         -7.833         -9.415         -84.43          43.85         -152.2          133.4          33.99
     1.569              -18.71        -0.4145          40.95          39.42         -7.712         -9.477         -82.24          43.68         -149.7          133.3          34.42
     1.609              -19.05         -0.292          41.38          39.74         -7.561         -9.553         -79.54          43.47         -146.6          133.3          34.94
     1.649              -19.48        -0.1394          41.91          40.13         -7.374         -9.648         -76.17           43.2         -142.8          133.2          35.59
      1.69              -20.02        0.05293          42.58          40.63         -7.138         -9.769         -71.92          42.87         -138.0          133.1          36.41
      1.73              -20.71         0.2974          43.44          41.26         -6.838         -9.921         -66.52          42.45         -131.8          133.0          37.45
      1.77              -21.58         0.6103          44.53          42.06         -6.453         -10.12          -59.6          41.91         -124.0          132.9          38.78
      1.81              -22.71          1.012          45.93           43.1          -5.96         -10.37         -50.73          41.22         -113.9          132.7          40.49
     1.851              -24.15          1.525          47.72          44.42         -5.331         -10.69          -39.4          40.34         -101.1          132.5          42.67
     1.891              -25.96           2.17          49.97          46.08         -4.539         -11.09         -25.15          39.22         -84.92          132.3          45.42
     1.931              -28.16          2.956          52.72           48.1         -3.574         -11.58          -7.79          37.87         -65.22          132.0          48.77
     1.971              -30.72          3.867           55.9          50.45         -2.455         -12.15          12.34           36.3         -42.39          131.6          52.64
     2.011              -33.48          4.853          59.34          52.99         -1.244         -12.77          34.13           34.6         -17.66          131.2          56.84
     2.052              -36.25           5.84          62.79          55.53       -0.03317         -13.38          55.92           32.9          7.062          130.8          61.04
     2.092               -38.8          6.751          65.97          57.88          1.085         -13.95          76.05          31.33           29.9          130.5          64.92
     2.132              -41.01          7.536          68.71           59.9           2.05         -14.44          93.41          29.97           49.6          130.1          68.27
     2.172              -42.82          8.181          70.96          61.57          2.842         -14.84          107.7          28.86          65.76          129.9          71.02
     2.213              -44.26          8.694          72.75          62.89          3.472         -15.16          119.0          27.98          78.62          129.7           73.2
     2.253              -45.38          9.096          74.15          63.92          3.965         -15.41          127.9          27.28          88.68          129.5          74.91
     2.293              -46.26          9.409          75.25          64.73          4.349         -15.61          134.8          26.74          96.52          129.4          76.24
     2.333              -46.95          9.653           76.1          65.36          4.649         -15.76          140.2          26.32          102.7          129.3          77.28
     2.374              -47.48          9.846          76.77          65.85          4.885         -15.88          144.4          25.99          107.5          129.2           78.1
     2.414              -47.91          9.998          77.31          66.25          5.073         -15.98          147.8          25.73          111.3          129.2          78.75
     2.454              -48.26          10.12          77.73          66.56          5.223         -16.05          150.5          25.52          114.4          129.1          79.27
     2.494              -48.53          10.22          78.08          66.82          5.345         -16.12          152.7          25.35          116.9          129.1          79.69
     2.534              -48.76           10.3          78.36          67.03          5.445         -16.17          154.5          25.21          118.9          129.0          80.04
     2.575              -48.95          10.37           78.6           67.2          5.527         -16.21          156.0          25.09          120.6          129.0          80.33
